HIERARCHY
ROOT Pelvis
{
	OFFSET 0.000000 0.941512 0.000000
	CHANNELS 6 Xposition Yposition Zposition Zrotation Yrotation Xrotation 
	JOINT Pelvis_L_Hip
	{
		OFFSET 0.000000 0.000000 0.000000
		CHANNELS 3 Zrotation Yrotation Xrotation
		JOINT L_Hip
		{
			OFFSET 0.062321 -0.080322 -0.016990
			CHANNELS 3 Zrotation Yrotation Xrotation
			JOINT L_Knee
			{
				OFFSET 0.093051 -0.381305 -0.029784
				CHANNELS 3 Zrotation Yrotation Xrotation
				JOINT L_Ankle
				{
					OFFSET -0.010371 -0.431000 -0.033614
					CHANNELS 3 Zrotation Yrotation Xrotation
					End Site #name: L_Foot
					{
						OFFSET 0.069299 -0.038670 0.119418
					}
				}
			}
		}
	}
	JOINT Pelvis_R_Hip
	{
		OFFSET 0.000000 0.000000 0.000000
		CHANNELS 3 Zrotation Yrotation Xrotation
		JOINT R_Hip
		{
			OFFSET -0.055334 -0.094904 -0.002373
			CHANNELS 3 Zrotation Yrotation Xrotation
			JOINT R_Knee
			{
				OFFSET -0.064207 -0.384370 -0.019592
				CHANNELS 3 Zrotation Yrotation Xrotation
				JOINT R_Ankle
				{
					OFFSET 0.025418 -0.419734 -0.065953
					CHANNELS 3 Zrotation Yrotation Xrotation
					End Site #name: R_Foot
					{
						OFFSET -0.057233 -0.039888 0.132134
					}
				}
			}
		}
	}
	JOINT Pelvis_Spine1
	{
		OFFSET 0.000000 0.000000 0.000000
		CHANNELS 3 Zrotation Yrotation Xrotation
		JOINT Spine1
		{
			OFFSET -0.005562 0.124093 -0.043360
			CHANNELS 3 Zrotation Yrotation Xrotation
			JOINT Spine2
			{
				OFFSET 0.012244 0.139499 0.029894
				CHANNELS 3 Zrotation Yrotation Xrotation
				JOINT Spine3
				{
					OFFSET -0.002556 0.056561 0.009225
					CHANNELS 3 Zrotation Yrotation Xrotation
					JOINT Spine3_Neck
					{
						OFFSET 0.000000 0.000000 0.000000
						CHANNELS 3 Zrotation Yrotation Xrotation
						JOINT Neck
						{
							OFFSET -0.005205 0.217920 -0.024551
							CHANNELS 3 Zrotation Yrotation Xrotation
							End Site #name: Head
							{
								OFFSET 0.002365 0.091850 0.046637
							}
						}
					}
					JOINT Spine3_L_Collar
					{
						OFFSET 0.000000 0.000000 0.000000
						CHANNELS 3 Zrotation Yrotation Xrotation
						JOINT L_Collar
						{
							OFFSET 0.072225 0.116603 -0.009480
							CHANNELS 3 Zrotation Yrotation Xrotation
							JOINT L_Shoulder
							{
								OFFSET 0.115937 -0.058643 -0.021018
								CHANNELS 3 Zrotation Yrotation Xrotation
								JOINT L_Elbow
								{
									OFFSET 0.021994 -0.254722 -0.024492
									CHANNELS 3 Zrotation Yrotation Xrotation
									End Site #name: L_Wrist
									{
										OFFSET 0.048810 -0.240214 0.103329
									}
								}
							}
						}
					}
					JOINT Spine3_R_Collar
					{
						OFFSET 0.000000 0.000000 0.000000
						CHANNELS 3 Zrotation Yrotation Xrotation
						JOINT R_Collar
						{
							OFFSET -0.073372 0.120704 -0.024611
							CHANNELS 3 Zrotation Yrotation Xrotation
							JOINT R_Shoulder
							{
								OFFSET -0.108089 -0.054969 -0.020504
								CHANNELS 3 Zrotation Yrotation Xrotation
								JOINT R_Elbow
								{
									OFFSET -0.033684 -0.260739 0.009889
									CHANNELS 3 Zrotation Yrotation Xrotation
									End Site #name: R_Wrist
									{
										OFFSET -0.067980 -0.232763 0.118463
									}
								}
							}
						}
					}
				}
			}
		}
	}
}
MOTION
Frames: 11
Frame Time: 0.041667
0.000000 0.955821 0.000000 -6.487082 -1.059418 0.989287 0.000000 0.000000 0.000000 -5.728262 0.516959 0.160616 5.453309 -0.483404 0.746748 -3.682107 -14.545146 -1.087102 0.000000 0.000000 0.000000 9.477608 -0.698021 0.690075 -3.017859 0.209639 -3.012412 7.235888 20.377388 2.503856 0.000000 0.000000 0.000000 3.963286 0.058411 -7.445153 -5.475432 4.291418 32.734940 5.235003 2.421384 -30.797647 0.000000 0.000000 0.000000 0.236428 -0.706373 18.441066 0.000000 0.000000 0.000000 18.700729 -7.017658 -1.657956 -15.892188 2.196437 5.800192 4.750573 2.543632 3.369302 0.000000 0.000000 0.000000 -14.809248 2.168502 1.382801 15.744398 -1.014486 8.352104 -4.756271 -2.084055 -1.181458 
0.000258 0.955603 0.000734 -6.508189 -0.935866 1.164233 0.000000 0.000000 0.000000 -5.773014 0.451370 -0.081568 5.539992 -0.501593 0.900669 -3.660245 -14.674653 -1.173414 0.000000 0.000000 0.000000 9.524761 -0.686529 0.620978 -3.102293 0.211501 -3.123940 7.150749 20.258311 2.421406 0.000000 0.000000 0.000000 3.961544 0.046569 -7.350108 -5.598689 4.311550 32.475185 5.253452 2.424466 -30.697854 0.000000 0.000000 0.000000 0.261056 -0.723698 18.298892 0.000000 0.000000 0.000000 18.920534 -7.076819 -1.664248 -16.081434 2.214040 5.784482 4.820823 2.565067 3.333617 0.000000 0.000000 0.000000 -14.952717 2.167386 1.406717 15.929497 -1.009718 8.331931 -4.765054 -2.053740 -1.323437 
0.001547 0.955652 0.001842 -6.467085 -0.605859 1.414570 0.000000 0.000000 0.000000 -6.037116 0.299893 -0.675033 5.767752 -0.571276 1.585290 -3.495719 -14.954472 -1.536417 0.000000 0.000000 0.000000 9.618921 -0.604506 0.258946 -3.471392 0.297861 -2.708367 6.695905 19.853697 1.844022 0.000000 0.000000 0.000000 4.238819 -0.044270 -6.960439 -5.900187 4.380837 32.046259 5.122686 2.452891 -30.600896 0.000000 0.000000 0.000000 0.137893 -0.643527 17.666883 0.000000 0.000000 0.000000 18.812890 -7.021720 -1.607092 -15.891338 2.142776 5.564912 4.806927 2.547290 3.252498 0.000000 0.000000 0.000000 -15.120963 2.186285 1.403264 16.122990 -1.055466 8.485655 -4.799757 -1.979854 -1.695063 
0.005147 0.956595 0.002406 -6.179638 -0.052333 1.638665 0.000000 0.000000 0.000000 -6.786133 0.006106 -1.845308 6.127285 -0.735893 3.292988 -3.062902 -15.383652 -2.355804 0.000000 0.000000 0.000000 9.727402 -0.227188 -1.242309 -4.366206 0.683672 -0.054232 5.328187 18.926998 -0.077794 0.000000 0.000000 0.000000 4.871362 -0.261803 -6.052612 -6.534864 4.554397 31.342589 4.838996 2.555633 -30.256856 0.000000 0.000000 0.000000 -0.288542 -0.367215 16.395268 0.000000 0.000000 0.000000 18.776104 -6.918345 -1.473325 -15.904432 1.969688 4.803491 4.994174 2.577926 2.979746 0.000000 0.000000 0.000000 -15.508669 2.428187 1.264207 16.639792 -1.115175 8.666276 -5.067158 -2.034880 -2.034682 
0.010125 0.956916 0.001506 -5.190754 0.622526 1.423193 0.000000 0.000000 0.000000 -8.254388 -0.355843 -3.282861 6.186515 -0.980347 6.306676 -2.188832 -15.833408 -3.827523 0.000000 0.000000 0.000000 9.166971 0.597649 -4.387145 -5.315093 1.569126 6.706395 2.908413 16.840321 -3.461242 0.000000 0.000000 0.000000 5.125157 -0.569537 -4.045675 -7.368380 4.800749 30.601256 4.548579 2.739400 -29.714829 0.000000 0.000000 0.000000 -0.785062 -0.036407 14.194788 0.000000 0.000000 0.000000 18.670916 -7.001387 -1.469090 -15.903233 1.678743 3.533636 5.246846 2.592409 2.423816 0.000000 0.000000 0.000000 -15.780646 3.107270 0.781113 16.923038 -1.133324 8.664886 -5.371563 -2.146180 -2.228521 
0.014886 0.954007 0.000590 -3.506475 1.499930 0.399971 0.000000 0.000000 0.000000 -10.278426 -0.616647 -4.300213 5.802467 -1.238935 10.256857 -1.001655 -16.189072 -5.705729 0.000000 0.000000 0.000000 7.821362 1.613215 -8.490890 -5.609254 2.827560 17.439592 0.261194 13.040477 -6.805649 0.000000 0.000000 0.000000 4.505868 -0.854512 -0.911669 -8.034009 4.965285 29.999211 4.400402 2.842934 -28.928660 0.000000 0.000000 0.000000 -0.919603 0.083702 11.576981 0.000000 0.000000 0.000000 18.832457 -7.728418 -1.906117 -15.946801 1.351110 2.072687 5.254170 2.524975 1.957323 0.000000 0.000000 0.000000 -16.070833 4.047480 0.113549 16.946658 -1.033654 8.220326 -5.599117 -2.232733 -2.364633 
0.018174 0.948217 0.002842 -1.880720 2.791923 -1.214539 0.000000 0.000000 0.000000 -12.055309 -0.649518 -4.466445 5.258053 -1.460448 14.184234 0.134631 -16.549005 -7.468413 0.000000 0.000000 0.000000 6.596244 2.452936 -12.299058 -5.107618 3.941124 29.911510 -1.497792 8.051981 -8.159359 0.000000 0.000000 0.000000 3.510955 -1.012640 2.129364 -8.182425 4.947048 30.035603 4.466126 2.784776 -28.282420 0.000000 0.000000 0.000000 -0.516444 -0.129849 10.116611 0.000000 0.000000 0.000000 19.035468 -9.216307 -2.919106 -15.681711 1.022726 0.708077 4.789506 2.501990 3.003979 0.000000 0.000000 0.000000 -16.214842 4.789617 -0.444021 16.526381 -0.892174 7.618301 -5.797318 -2.359024 -2.268614 
0.020488 0.943784 0.010057 -1.086874 4.446450 -2.612643 0.000000 0.000000 0.000000 -12.850353 -0.485297 -3.977776 4.988471 -1.656631 16.981486 0.849253 -17.197106 -8.658425 0.000000 0.000000 0.000000 6.265415 3.117080 -15.448941 -4.116386 4.396812 41.445377 -2.184926 3.459003 -7.389268 0.000000 0.000000 0.000000 2.905601 -1.054689 3.650646 -7.789697 4.732033 30.735789 4.782801 2.680875 -28.087145 0.000000 0.000000 0.000000 0.162582 -0.578484 10.734131 0.000000 0.000000 0.000000 19.096504 -11.023116 -4.201987 -15.195419 0.738795 -0.394038 4.082421 2.691513 5.916011 0.000000 0.000000 0.000000 -16.129165 5.085204 -0.729222 15.850272 -0.839443 7.338228 -6.110815 -2.666577 -1.639295 
0.022558 0.943706 0.021669 -1.215011 6.108308 -3.092752 0.000000 0.000000 0.000000 -12.544461 -0.217227 -3.180585 5.062768 -1.774837 17.749085 0.932863 -18.407872 -9.085296 0.000000 0.000000 0.000000 6.621017 3.784629 -18.489748 -2.911263 3.997035 49.638582 -2.342219 0.745657 -6.224435 0.000000 0.000000 0.000000 2.763519 -1.010020 3.522996 -7.047075 4.327648 31.379759 5.253117 2.618641 -28.332458 0.000000 0.000000 0.000000 0.825052 -1.094924 12.343458 0.000000 0.000000 0.000000 19.145844 -12.332467 -5.120988 -14.892359 0.588294 -0.940695 3.533537 2.887769 8.356470 0.000000 0.000000 0.000000 -15.941367 4.853914 -0.660620 15.366092 -0.922398 7.594176 -6.446621 -3.009450 -0.876458 
0.023971 0.946761 0.036226 -1.856036 7.326230 -2.723077 0.000000 0.000000 0.000000 -11.559931 0.156103 -2.051750 5.298194 -1.725951 16.381911 0.468547 -19.974930 -8.857192 0.000000 0.000000 0.000000 7.044193 4.497278 -21.746023 -1.899644 3.188628 52.666473 -2.300830 0.488177 -5.990955 0.000000 0.000000 0.000000 2.737739 -0.921991 2.810833 -6.276601 3.875752 31.436941 5.729554 2.629367 -28.830791 0.000000 0.000000 0.000000 1.340513 -1.495508 13.216478 0.000000 0.000000 0.000000 19.372797 -12.539986 -5.204884 -14.890872 0.593971 -0.854412 3.287414 2.715284 7.797705 0.000000 0.000000 0.000000 -15.777915 4.206293 -0.286286 15.333551 -1.081707 8.185622 -6.550581 -3.077568 -0.802274 
0.023847 0.949876 0.052528 -2.631409 7.783365 -2.122094 0.000000 0.000000 0.000000 -10.411909 0.604184 -0.606377 5.552921 -1.576614 14.157712 -0.051287 -21.222512 -8.496941 0.000000 0.000000 0.000000 7.376482 5.160990 -24.756509 -1.677167 2.805563 49.818946 -1.732447 2.536615 -5.894085 0.000000 0.000000 0.000000 2.621331 -0.841827 2.347211 -5.813628 3.607036 31.237422 6.185490 2.798562 -29.278176 0.000000 0.000000 0.000000 1.678000 -1.671699 12.674916 0.000000 0.000000 0.000000 19.772434 -11.869272 -4.621482 -14.869171 0.622730 -0.687710 3.283732 2.215133 4.773183 0.000000 0.000000 0.000000 -15.647534 3.608696 0.081309 15.720082 -1.206253 8.663517 -6.373965 -2.832698 -1.495197 
